HIERARCHY
ROOT Hips
{
 OFFSET 0.000000 0.000000 0.000000
 CHANNELS 6 Xposition Yposition Zposition Yrotation Xrotation Zrotation
 JOINT Chest
 {
  OFFSET 0.000000 9.581000 -0.001100
  CHANNELS 3 Yrotation Xrotation Zrotation
  JOINT Chest2
  {
   OFFSET 0.000000 9.561100 0.002200
   CHANNELS 3 Yrotation Xrotation Zrotation
   JOINT Chest3
   {
    OFFSET 0.000000 9.521100 0.000000
    CHANNELS 3 Yrotation Xrotation Zrotation
    JOINT Chest4
    {
     OFFSET 0.000000 9.511400 0.000000
     CHANNELS 3 Yrotation Xrotation Zrotation
     JOINT Neck
     {
      OFFSET 0.000000 14.375100 0.000000
      CHANNELS 3 Yrotation Xrotation Zrotation
      JOINT Head
      {
       OFFSET 0.000000 8.901200 0.004600
       CHANNELS 3 Yrotation Xrotation Zrotation
       End Site
       {
        OFFSET 0.000000 16.962200 0.002400
       }
      }
     }
     JOINT RightCollar
     {
      OFFSET -2.920100 9.518800 0.000000
      CHANNELS 3 Yrotation Xrotation Zrotation
      JOINT RightShoulder
      {
       OFFSET -13.664500 0.000000 0.000000
       CHANNELS 3 Yrotation Xrotation Zrotation
       JOINT RightElbow
       {
        OFFSET 0.000000 -29.999200 0.000000
        CHANNELS 3 Yrotation Xrotation Zrotation
        JOINT RightWrist
        {
         OFFSET 0.000000 -24.253600 0.000000
         CHANNELS 3 Yrotation Xrotation Zrotation
         End Site
         {
          OFFSET 0.000000 -17.918900 0.000000
         }
        }
       }
      }
     }
     JOINT LeftCollar
     {
      OFFSET 2.920100 9.518800 0.000000
      CHANNELS 3 Yrotation Xrotation Zrotation
      JOINT LeftShoulder
      {
       OFFSET 13.664500 0.000000 0.000000
       CHANNELS 3 Yrotation Xrotation Zrotation
       JOINT LeftElbow
       {
        OFFSET 0.000000 -29.999200 0.000000
        CHANNELS 3 Yrotation Xrotation Zrotation
        JOINT LeftWrist
        {
         OFFSET 0.000000 -24.253600 0.000000
         CHANNELS 3 Yrotation Xrotation Zrotation
         End Site
         {
          OFFSET 0.000000 -17.918900 0.000000
         }
        }
       }
      }
     }
    }
   }
  }
 }
 JOINT RightHip
 {
  OFFSET -7.797300 0.005300 0.000500
  CHANNELS 3 Yrotation Xrotation Zrotation
  JOINT RightKnee
  {
   OFFSET 0.000000 -40.663400 -0.000500
   CHANNELS 3 Yrotation Xrotation Zrotation
   JOINT RightAnkle
   {
    OFFSET 0.000000 -39.523700 -0.000900
    CHANNELS 3 Yrotation Xrotation Zrotation
    JOINT RightToe
    {
     OFFSET 0.000000 -6.418000 14.485300
     CHANNELS 3 Yrotation Xrotation Zrotation
     End Site
     {
      OFFSET 0.000000 -1.465200 6.326400
     }
    }
   }
  }
 }
 JOINT LeftHip
 {
  OFFSET 7.797300 0.005300 0.000500
  CHANNELS 3 Yrotation Xrotation Zrotation
  JOINT LeftKnee
  {
   OFFSET 0.000000 -40.663400 -0.000500
   CHANNELS 3 Yrotation Xrotation Zrotation
   JOINT LeftAnkle
   {
    OFFSET 0.000000 -39.523700 -0.000900
    CHANNELS 3 Yrotation Xrotation Zrotation
    JOINT LeftToe
    {
     OFFSET 0.000000 -6.418000 14.485300
     CHANNELS 3 Yrotation Xrotation Zrotation
     End Site
     {
      OFFSET 0.000000 -1.465200 6.326400
     }
    }
   }
  }
 }
}
MOTION
Frames: 16
Frame Time: 0.008333
0.000000 86.422400 0.000000 0.000000 -5.767877 0.000000 0.000000 11.653817 0.000000 0.000000 -5.885947 0.000000 0.000000 -0.000000 0.000000 0.000000 -0.000000 0.000000 0.000000 12.528835 0.000000 0.000000 0.711642 0.000000 0.000000 -0.000000 0.000000 0.000000 0.000000 -90.000000 0.000000 -2.309062 0.000000 0.000000 2.309062 0.000000 0.000000 -0.000000 0.000000 0.000000 -0.000000 90.000000 0.000000 -2.309062 0.000000 0.000000 2.309062 0.000000 0.000000 8.520406 0.000000 0.000000 1.905762 0.000000 -0.000000 -4.658285 0.000000 0.000000 -0.000000 0.000000 0.000000 8.520406 0.000000 0.000000 1.905762 0.000000 -0.000000 -4.658285 0.000000 0.000000 -0.000000 0.000000
-2.160188 126.172697 20.270768 -169.130456 -23.250672 -0.740450 -3.971089 23.464762 0.522815 -0.596312 3.503382 0.179499 -0.956339 5.643543 0.271605 -3.306770 19.626992 0.545844 -1.401096 12.024122 -2.068523 -1.003045 -13.105237 -1.819993 -4.122686 -8.555822 -3.865650 8.222633 1.397584 -16.827134 116.855056 -63.633393 -77.386419 4.924742 -37.990273 -53.511622 -2.839275 -7.998449 3.307683 -1.413544 -5.487920 6.303228 -77.374383 -75.885298 62.745363 -16.412859 2.698814 32.143975 -19.803618 -64.100764 9.950592 -37.995029 67.698653 -41.422095 29.801650 37.107754 22.956785 0.009596 0.001823 0.004252 -8.398724 -52.812040 -12.850838 23.492816 76.171251 13.922350 0.271543 -0.915056 7.897471 0.000082 0.002711 0.000036
-2.162171 126.172951 20.272752 -169.133236 -23.247444 -0.736584 -3.967290 23.483081 0.504750 -0.597182 3.522643 0.167169 -0.953451 5.643092 0.281897 -3.301345 19.644297 0.540452 -1.395999 12.027626 -2.062756 -0.983174 -13.078415 -1.811446 -4.127685 -8.771976 -3.921592 8.227244 1.430353 -16.712438 116.549620 -63.652003 -76.957848 4.974675 -38.008486 -53.600046 -2.914804 -8.145400 3.322395 -1.403956 -5.451680 6.356423 -77.037225 -75.885971 62.423245 -16.433877 2.688609 32.155761 -19.737738 -64.115809 9.891547 -38.013685 67.705788 -41.417136 29.722195 37.096220 22.966662 0.001360 -0.007922 0.000602 -8.405165 -52.816684 -12.840587 23.469460 76.164441 13.891505 0.267100 -0.907648 7.896441 0.001988 0.002188 0.000881
-2.162011 126.174020 20.273291 -169.135858 -23.252579 -0.748728 -3.960767 23.506151 0.496170 -0.595415 3.517604 0.177765 -0.954840 5.664921 0.268354 -3.316015 19.709313 0.496835 -1.363426 11.983092 -2.016961 -0.969453 -13.076514 -1.802359 -4.120846 -9.034121 -3.938460 8.228749 1.463226 -16.604877 116.252527 -63.674253 -76.514552 5.030645 -38.059980 -53.710112 -2.934245 -8.285799 3.383694 -1.431638 -5.462838 6.393381 -76.683288 -75.869142 62.048353 -16.441369 2.678904 32.205649 -19.711309 -64.114526 9.871757 -38.013547 67.711824 -41.402866 29.719159 37.089835 22.987589 -0.001468 -0.009730 -0.000650 -8.425453 -52.810388 -12.818504 23.505664 76.147363 13.927925 0.257840 -0.895964 7.894048 0.000608 0.001259 0.000270
-2.163264 126.175309 20.274321 -169.137069 -23.257986 -0.754144 -3.964198 23.529168 0.479888 -0.609124 3.554334 0.156970 -0.952835 5.677522 0.268313 -3.304857 19.703307 0.505080 -1.336688 11.953712 -1.998739 -0.956849 -13.047204 -1.807319 -4.113413 -9.267737 -3.994406 8.232505 1.501414 -16.503445 115.959535 -63.697432 -76.062315 5.089990 -38.062810 -53.821701 -3.006786 -8.463031 3.408413 -1.402707 -5.395716 6.430747 -76.322899 -75.852954 61.664911 -16.453916 2.665176 32.249308 -19.702514 -64.110261 9.865210 -38.001324 67.713940 -41.390000 29.719416 37.083315 23.005663 -0.002344 -0.007943 -0.001038 -8.434636 -52.805221 -12.814013 23.566118 76.131805 13.988506 0.253610 -0.889803 7.895150 -0.000055 0.000593 -0.000025
-2.164685 126.177053 20.274997 -169.137807 -23.267610 -0.760794 -3.986808 23.582975 0.443274 -0.598792 3.542406 0.172714 -0.953746 5.690481 0.264541 -3.312903 19.726802 0.495167 -1.306082 11.917183 -1.986095 -0.944800 -13.027376 -1.812800 -4.099447 -9.518328 -4.052574 8.243536 1.549840 -16.409839 115.661002 -63.723399 -75.605980 5.141882 -37.989278 -53.902486 -3.068605 -8.648682 3.435602 -1.368861 -5.332457 6.457795 -75.843497 -75.802825 61.094272 -16.444487 2.632206 32.365101 -19.664361 -64.107080 9.835909 -38.025826 67.715927 -41.397717 29.706213 37.080946 23.009537 -0.000364 -0.006928 -0.000161 -8.439105 -52.797402 -12.814557 23.635176 76.117909 14.060900 0.248844 -0.880093 7.895145 -0.000678 -0.000029 -0.000300
-2.166342 126.178883 20.275984 -169.135797 -23.277149 -0.768671 -3.999251 23.614673 0.429859 -0.601127 3.553058 0.171784 -0.941488 5.670448 0.275266 -3.324652 19.750257 0.485327 -1.304212 11.942298 -1.995880 -0.929453 -13.066431 -1.802478 -4.098838 -9.744041 -4.121510 8.266061 1.610176 -16.321805 115.351897 -63.751280 -75.146644 5.197721 -37.989776 -54.007459 -3.104014 -8.753552 3.450862 -1.357703 -5.324081 6.477415 -75.420140 -75.783105 60.635654 -16.448401 2.610798 32.418397 -19.648675 -64.094922 9.821270 -37.999841 67.715909 -41.368159 29.700926 37.080069 23.023119 -0.003960 -0.004742 -0.001754 -8.440680 -52.791778 -12.819559 23.698158 76.106184 14.130130 0.244528 -0.868079 7.894807 -0.001222 -0.001510 -0.000541
-2.167760 126.180350 20.277968 -169.134599 -23.281369 -0.778655 -4.003876 23.635729 0.426217 -0.602917 3.560999 0.171262 -0.955244 5.695505 0.269315 -3.314496 19.738020 0.490552 -1.311475 11.977162 -2.006228 -0.903641 -13.121286 -1.795506 -4.093088 -9.973073 -4.191381 8.299724 1.681755 -16.234459 115.037431 -63.777169 -74.689384 5.257313 -37.989367 -54.123316 -3.102738 -8.811710 3.460954 -1.355662 -5.332273 6.486642 -75.131603 -75.767396 60.302617 -16.454792 2.585268 32.468218 -19.660807 -64.083965 9.834635 -37.938212 67.716122 -41.312031 29.740087 37.080899 23.047232 0.002453 -0.000619 0.001087 -8.441794 -52.793408 -12.822416 23.756798 76.098543 14.197375 0.239419 -0.856539 7.893190 -0.002078 -0.002812 -0.000921
-2.169049 126.182140 20.278963 -169.131197 -23.292563 -0.793665 -4.002993 23.653226 0.436127 -0.603480 3.563605 0.171079 -0.967088 5.734765 0.257367 -3.333690 19.801713 0.464514 -1.274005 11.887311 -1.977735 -0.901089 -13.136886 -1.793185 -4.064308 -10.273165 -4.233412 8.338941 1.761501 -16.146242 114.721720 -63.801786 -74.240720 5.317247 -37.985983 -54.244059 -3.181970 -9.077950 3.508413 -1.262576 -5.197820 6.499005 -74.843401 -75.751337 59.968377 -16.469676 2.547695 32.488196 -19.687971 -64.061113 9.863698 -37.886336 67.703644 -41.272634 29.773931 37.081942 23.079582 0.005854 -0.001832 0.002594 -8.447296 -52.789120 -12.822161 23.807329 76.097326 14.256408 0.243583 -0.848270 7.892867 -0.002718 -0.002666 -0.001204
-2.167739 126.184516 20.277699 -169.114542 -23.315064 -0.833896 -4.008483 23.693829 0.450647 -0.604548 3.573377 0.170611 -0.968581 5.749551 0.256446 -3.333177 19.824308 0.457333 -1.277610 11.864200 -1.964392 -0.883191 -13.178749 -1.782628 -4.042193 -10.518951 -4.289801 8.378179 1.843635 -16.057929 114.403842 -63.826651 -73.802040 5.377340 -37.982653 -54.361712 -3.247264 -9.245350 3.544142 -1.174030 -5.197674 6.538363 -74.258398 -75.740184 59.293118 -16.482062 2.512731 32.531655 -19.763908 -64.006369 9.944765 -37.845810 67.669990 -41.253348 29.785589 37.082489 23.105652 0.006143 -0.002934 0.002721 -8.490994 -52.769881 -12.789521 23.886978 76.092282 14.345842 0.237347 -0.843083 7.895518 -0.002254 -0.000959 -0.000999
-2.170793 126.185715 20.279041 -169.103313 -23.325440 -0.845143 -4.012220 23.716230 0.440276 -0.605480 3.580924 0.170700 -0.971639 5.779840 0.239243 -3.326854 19.810144 0.479706 -1.269779 11.837945 -1.948298 -0.885346 -13.202563 -1.771001 -4.010995 -10.730575 -4.362866 8.391878 1.967032 -15.957393 114.176096 -63.817310 -73.459576 5.448284 -38.010298 -54.505011 -3.302120 -9.359218 3.565413 -1.091149 -5.163246 6.560397 -74.005619 -75.736159 58.979862 -16.499645 2.492140 32.544249 -19.780232 -63.986702 9.958640 -37.805232 67.664783 -41.236171 29.764077 37.069898 23.141634 -0.003724 -0.005555 -0.001650 -8.503665 -52.762851 -12.789406 23.942086 76.084665 14.405576 0.224661 -0.840932 7.892653 0.000953 0.002426 0.000422
-2.173607 126.186093 20.281235 -169.097898 -23.328527 -0.855685 -4.007777 23.727192 0.433096 -0.606511 3.586958 0.171197 -0.975530 5.777535 0.245508 -3.338123 19.818915 0.478661 -1.259600 11.817498 -1.931195 -0.881285 -13.224918 -1.758298 -3.970182 -10.923798 -4.446868 8.447055 2.026647 -15.873852 113.825697 -63.846206 -73.002091 5.514049 -38.036539 -54.651152 -3.351016 -9.458973 3.580360 -1.002908 -5.124961 6.578794 -73.778748 -75.729476 58.689679 -16.517392 2.474828 32.560614 -19.780920 -63.969908 9.965629 -37.789495 67.648401 -41.220176 29.752500 37.066823 23.153151 -0.003378 -0.002762 -0.001496 -8.504560 -52.768753 -12.798646 23.986059 76.081814 14.465240 0.223960 -0.832556 7.884493 0.001891 0.001566 0.000838
-2.173793 126.186728 20.281234 -169.081078 -23.339796 -0.889154 -4.010586 23.741339 0.444794 -0.607818 3.590784 0.171854 -0.973762 5.775872 0.258090 -3.347594 19.822450 0.476712 -1.262642 11.805556 -1.914283 -0.867935 -13.252733 -1.735979 -3.939724 -11.100409 -4.540172 8.515824 2.081072 -15.786854 113.470726 -63.867839 -72.543660 5.569083 -38.034648 -54.773592 -3.405348 -9.547086 3.590820 -0.922397 -5.083628 6.590851 -73.378602 -75.675408 58.182763 -16.522374 2.416026 32.646888 -19.724614 -63.932014 9.921122 -37.804549 67.617937 -41.190148 29.753031 37.063340 23.159195 -0.002473 0.003991 -0.001096 -8.538244 -52.764333 -12.776041 24.043753 76.083946 14.536752 0.218722 -0.829781 7.877211 0.001741 0.002978 0.000771
-2.175933 126.186559 20.282215 -169.064709 -23.343575 -0.909746 -4.028060 23.745788 0.443893 -0.610413 3.592742 0.172322 -0.977950 5.778776 0.258759 -3.344254 19.822303 0.481697 -1.263278 11.797232 -1.900967 -0.849895 -13.256743 -1.740166 -3.903502 -11.274892 -4.636735 8.572292 2.154356 -15.688835 113.157042 -63.866371 -72.123855 5.624762 -38.033979 -54.887973 -3.456639 -9.634099 3.601164 -0.855097 -5.017938 6.593996 -73.158512 -75.632309 57.902515 -16.521846 2.376511 32.700373 -19.725780 -63.920628 9.915405 -37.809538 67.611118 -41.179821 29.775009 37.064466 23.174611 0.001817 0.004789 0.000805 -8.557967 -52.767810 -12.766324 24.074407 76.083350 14.573657 0.214938 -0.823339 7.876427 0.001268 0.002355 0.000562
-2.175569 126.186315 20.281897 -169.061746 -23.348475 -0.940577 -4.032695 23.747018 0.457148 -0.611970 3.593787 0.172903 -0.980335 5.780519 0.259453 -3.351922 19.823951 0.483050 -1.248417 11.796190 -1.893673 -0.845889 -13.261367 -1.725576 -3.847799 -11.446165 -4.730460 8.621942 2.223812 -15.594177 112.832223 -63.861528 -71.690368 5.688660 -38.044909 -55.003634 -3.498196 -9.716827 3.610477 -0.816782 -4.983453 6.597151 -72.833525 -75.585277 57.548606 -16.510330 2.352352 32.748905 -19.740262 -63.903771 9.940274 -37.820069 67.596445 -41.171789 29.775142 37.085085 23.193277 -0.001784 -0.000423 -0.000791 -8.591447 -52.768196 -12.726095 24.104798 76.087619 14.609740 0.214615 -0.819552 7.870965 0.000523 0.003931 0.000232
-2.177013 126.185264 20.282746 -169.061584 -23.343071 -0.957234 -4.040454 23.743146 0.459470 -0.613243 3.595046 0.173648 -0.982533 5.782243 0.260796 -3.375596 19.841172 0.488617 -1.213913 11.775345 -1.905026 -0.870750 -13.289329 -1.691166 -3.770557 -11.636337 -4.825493 8.661952 2.281051 -15.512117 112.493734 -63.861642 -71.235923 5.751552 -38.057262 -55.116621 -3.520247 -9.820401 3.602930 -0.782471 -4.928448 6.602179 -72.611432 -75.541186 57.299919 -16.513814 2.322434 32.791663 -19.696263 -63.903551 9.911559 -37.867095 67.575552 -41.182711 29.804226 37.095998 23.202155 -0.001613 -0.002778 -0.000715 -8.610800 -52.779344 -12.698115 24.117659 76.092650 14.622860 0.213042 -0.816771 7.867501 0.000354 0.005162 0.000157
